<?xml version="1.0" standalone="no"?>
<!DOCTYPE svg PUBLIC "-//W3C//DTD SVG 20010904//EN"
 "http://www.w3.org/TR/2001/REC-SVG-20010904/DTD/svg10.dtd">
<svg version="1.0" xmlns="http://www.w3.org/2000/svg"
 width="912.000000pt" height="912.000000pt" viewBox="0 0 912.000000 912.000000"
 preserveAspectRatio="xMidYMid meet">
<metadata>
Created by potrace 1.11, written by Peter Selinger 2001-2013
</metadata>
<g transform="translate(0.000000,912.000000) scale(0.100000,-0.100000)"
fill="#000000" stroke="none">
<path d="M4500 9011 c-25 -15 -286 -170 -580 -343 -294 -173 -636 -375 -760
-448 -124 -73 -542 -319 -930 -548 -388 -228 -792 -466 -897 -528 -411 -243
-591 -349 -948 -559 -203 -119 -374 -222 -380 -227 -7 -7 -6 -12 2 -15 11 -4
69 -38 461 -270 l192 -114 -30 -45 c-46 -66 -87 -159 -110 -248 -20 -77 -20
-107 -20 -1342 l0 -1262 -37 -12 c-180 -58 -332 -206 -400 -391 -25 -66 -28
-87 -28 -204 0 -111 4 -140 24 -200 69 -205 248 -371 448 -416 50 -11 51 -13
42 -37 -6 -14 -23 -69 -38 -121 -16 -53 -68 -222 -116 -376 -100 -324 -150
-485 -175 -570 -10 -33 -57 -185 -104 -339 -48 -153 -84 -281 -81 -284 3 -3
215 64 470 149 421 139 465 156 465 175 0 12 -13 93 -30 180 -16 88 -48 260
-70 384 -22 124 -54 297 -70 385 -41 224 -69 386 -72 414 -3 22 2 25 63 37
215 40 415 231 475 454 23 85 23 234 1 318 -50 190 -199 358 -377 428 l-70 27
0 1227 c0 780 4 1247 10 1281 12 65 60 166 93 197 l24 23 124 -73 c68 -41 143
-85 166 -98 l42 -23 3 -1021 c3 -1013 4 -1022 25 -1098 97 -342 343 -635 743
-883 440 -272 1095 -484 1780 -575 365 -48 1052 -48 1450 1 421 52 888 170
1285 326 369 145 678 337 897 560 155 155 244 285 307 444 67 172 64 118 68
1234 l4 1011 112 65 c62 36 252 148 422 249 578 341 729 430 739 434 7 2 8 7
1 14 -5 5 -176 108 -380 227 -357 210 -537 316 -947 559 -106 62 -510 300
-898 528 -388 229 -806 475 -930 548 -124 73 -463 273 -755 445 -291 172 -554
326 -583 344 -29 17 -58 31 -65 30 -7 0 -32 -13 -57 -28z"/>
</g>
</svg>
